<?xml version="1.0" encoding="utf-8"?>
<!-- Generator: Adobe Illustrator 21.0.2, SVG Export Plug-In . SVG Version: 6.00 Build 0)  -->
<svg version="1.1" id="Capa_1" xmlns="http://www.w3.org/2000/svg" xmlns:xlink="http://www.w3.org/1999/xlink" x="0px" y="0px"
	 viewBox="0 0 200 200" style="enable-background:new 0 0 200 200;" xml:space="preserve">
<style type="text/css">
	.st0{fill:#1D1D1B;}
</style>
<path class="st0" d="M168.6,116c-8.1,0.8-15.7,3.2-22.7,7c-1.8-3.8-4.3-7.1-7.5-8.9c-2.8-1.6-6-2.2-9.3-2.1
	c5.5-12,14.8-21.8,26.8-27.8c2.9-1.4,0.3-5.8-2.5-4.3c-13.7,6.9-24.3,18.6-30,32.7c-4.3,0.8-8.7,2.3-12.7,3.8
	c7.2-14.5,14.3-29.1,21.5-43.6c5.3-10.8,11.4-25.9,1.1-36c-9.3-9.1-23.5-5.1-32.6,1.9c-0.4,0.3-0.8,0.6-1.2,1
	c-0.1-0.2-0.3-0.4-0.4-0.6c-1.8-2.6-6.2-0.1-4.3,2.5c0.3,0.5,0.7,0.9,1,1.3c-9.3,8.6-17.2,19.8-20.4,31.8
	c-4.1,14.9-2.7,30.5-3.3,45.8c-8.5-9.5-24.2-15.5-34.8-7c-2.4,1.9-3.4,4.1-3.6,6.3c-1.1,0.1-2.1,0.3-3.2,0.6
	c-5.9,1.7-9.2,8.5-12,13.4c-1.6,2.8,2.7,5.3,4.3,2.5c1.3-2.2,2.6-4.4,4-6.5c2.3-3.2,4.3-4.6,7.8-4.9c1.1,2.6,3.1,5.1,5.2,7.1
	c1.4,1.4,2.9,2.8,4.4,4.2c-5.8,5.2-9.1,13-8.4,21.4c0.3,3.2,5.3,3.2,5,0c-0.6-7.2,2.1-13.6,7.1-17.9c2.1,2,4.2,4,6.3,6
	c-1.4,0.6-2.7,1.2-4,2c-6,3.4-4.9,8.6-6.1,14.6c-0.6,3.1,4.2,4.5,4.8,1.3c0.4-2,0.5-3.9,0.7-5.9c0.4-4.4,2.9-5.7,6.6-7.3
	c0.7-0.3,1.4-0.6,2.1-0.9c3,2.8,6,5.7,9,8.6c2.3,2.2,5.9-1.3,3.5-3.5c-2.4-2.3-4.8-4.5-7.2-6.8c2.9-0.8,5.8-1.4,8.7-1.9
	c3.2-0.5,1.8-5.3-1.3-4.8c-3.9,0.6-7.8,1.5-11.6,2.7c-2-1.9-3.9-3.8-5.9-5.6c-0.4-0.3-0.8-0.7-1.3-1.2c1.8-0.9,3.8-1.6,6-2
	c3.2-0.6,1.8-5.4-1.3-4.8c-3.2,0.6-6.1,1.7-8.8,3.3c-2.9-2.6-6.1-5.7-7.9-8.7c4.6,0,9.2,0,13.7,0c3.2,0,3.2-5,0-5
	c-4.3,0-8.6,0-12.9,0c-0.6,0-1.3,0-2,0c0.2-0.8,0.6-1.6,1.4-2.2c4.5-4.2,13-2.9,18.2-0.9c6,2.4,10.6,6.7,13.4,12.5
	c1.2,2.4,4.4,1,4.7-1.3c1.6-16.9-0.9-34.4,3.4-51c2.2-8.7,6.8-16.2,12.6-23c2-2.4,4.2-4.8,6.5-7.1c8.6,9.2,19.9,13.7,32.6,15.1
	c-0.9,2.4-2,4.7-3,6.8c-8.3,17.1-16.8,34.1-25.2,51.1c-0.9,1.7,0.6,4.6,2.8,3.7c4.6-1.9,9.9-4,15.1-5.2c-0.3,1-0.6,1.9-0.8,2.9
	c-0.8,3.1,4.1,4.5,4.8,1.3c0.4-1.8,1-3.5,1.5-5.2c1.2-0.1,2.4-0.2,3.6-0.1c5.1,0.2,8.8,3.8,11,8.5c-2.8,1.9-5.4,4-7.9,6.4
	c-2.3,2.2,1.2,5.8,3.5,3.5c1.9-1.8,4-3.5,6.1-5c0.8,3.1,1,6.2,0.7,8.8c-0.3,2.6-1.3,5-2.7,7.1c-1.9-0.7-3.8-1.3-5.7-1.8
	c-3.1-0.8-4.4,4-1.3,4.8c1.2,0.3,2.4,0.7,3.6,1.1c-2.9,2.8-6.4,5-9.6,6.8c-10.3,5.5-17.3,0.7-24.5-6.8c-2.2-2.3-5.8,1.2-3.5,3.5
	c7.7,8.2,16.3,13.9,27.7,9.1c5.2-2.2,11-5.9,15.2-10.6c7.8,3.2,14.9,7.7,21.2,13.5c2.4,2.2,5.9-1.4,3.5-3.5
	c-6.5-5.9-13.7-10.7-21.7-14.1c1.3-2.2,2.3-4.6,2.7-7c0.7-3.9,0.3-8.9-1.1-13.6c6.4-3.6,13.4-5.9,20.9-6.7
	C171.7,120.7,171.8,115.7,168.6,116z M102.7,43.5c2.6-2.2,5.4-4,8.5-5.3c5.6-2.4,12.8-2.4,17.6,1.3c-7.1,0.9-15.9,3.8-15.3,12.2
	C109.5,49.6,105.9,46.9,102.7,43.5z M118.3,53.8c0.2-0.4,0.3-0.8,0.2-1.4c-0.9-6.8,7.5-7.8,12.4-8.2c0.5,0,1-0.2,1.3-0.5
	c0,0,0,0,0,0c2.1,4.2,2,8.8,0.9,13.2C127.9,56.6,122.9,55.5,118.3,53.8z"/>
</svg>
